<svg xmlns="http://www.w3.org/2000/svg" viewBox="0 0 100 125" fill="none" x="0px" y="0px"><path fill-rule="evenodd" clip-rule="evenodd" d="M67 37C67 44.6391 64.1448 51.6114 59.4433 56.9078L66.4018 63.8662L66.5121 63.761C68.5102 61.8549 71.6751 61.9295 73.5812 63.9276L89.457 80.5696C91.3631 82.5677 91.2885 85.7327 89.2905 87.6387L86.3962 90.3998C84.3981 92.3058 81.2332 92.2313 79.3271 90.2332L63.4513 73.5911C61.8185 71.8796 61.6391 69.3119 62.8771 67.4126L55.8246 60.3601C50.6772 64.5134 44.129 67 37 67C20.4315 67 7 53.5685 7 37C7 20.4315 20.4315 7 37 7C53.5685 7 67 20.4315 67 37ZM37 60C49.7025 60 60 49.7025 60 37C60 24.2975 49.7025 14 37 14C24.2975 14 14 24.2975 14 37C14 49.7025 24.2975 60 37 60Z" fill="black"/><text x="0" y="115" fill="#000000" font-size="5px" font-weight="bold" font-family="'Helvetica Neue', Helvetica, Arial-Unicode, Arial, Sans-serif">Created by Suyeon Kim</text><text x="0" y="120" fill="#000000" font-size="5px" font-weight="bold" font-family="'Helvetica Neue', Helvetica, Arial-Unicode, Arial, Sans-serif">from the Noun Project</text></svg>